<?xml version="1.0" standalone="no"?>
<!DOCTYPE svg PUBLIC "-//W3C//DTD SVG 20010904//EN" "http://www.w3.org/TR/2001/REC-SVG-20010904/DTD/svg10.dtd">
<svg version="1.0" xmlns="http://www.w3.org/2000/svg" width="84" height="25" viewBox="0 0 84 25"
    preserveAspectRatio="xMidYMid meet">

    <g transform="translate(0.000000,1080.000000) scale(0.100000,-0.100000)" fill="none" stroke="none">
        <path d="M4900 5400 c0 -127 2 -150 15 -150 12 0 15 15 15 73 0 85 16 117 59
117 43 0 51 -16 51 -107 0 -78 1 -83 21 -83 21 0 21 4 17 89 -2 51 -9 96 -17
104 -20 24 -67 30 -101 14 l-30 -15 0 54 c0 41 -4 54 -15 54 -13 0 -15 -23
-15 -150z" />
        <path d="M4086 5519 c-18 -15 -26 -30 -26 -53 0 -38 25 -64 88 -91 48 -21 65
-56 39 -82 -15 -16 -79 -20 -117 -8 -14 4 -20 2 -20 -8 0 -20 22 -27 79 -27
63 0 101 28 101 74 0 39 -16 55 -85 88 -39 18 -51 29 -53 50 -4 36 27 52 84
44 33 -4 44 -2 44 8 0 31 -96 35 -134 5z" />
        <path d="M5610 5520 c0 -11 7 -20 15 -20 8 0 15 9 15 20 0 11 -7 20 -15 20 -8
0 -15 -9 -15 -20z" />
        <path d="M6048 5534 c-5 -4 -8 -70 -8 -146 0 -131 1 -138 20 -138 18 0 20 7
20 60 0 60 0 60 29 60 26 0 34 -8 63 -60 21 -38 39 -60 50 -60 24 0 24 0 -17
67 l-35 58 25 18 c35 26 36 99 2 122 -26 17 -138 31 -149 19z m127 -44 c8 -7
15 -25 15 -41 0 -34 -23 -49 -74 -49 l-36 0 0 56 0 57 40 -6 c23 -3 47 -11 55
-17z" />
        <path d="M6512 5523 c2 -10 10 -18 18 -18 22 0 18 29 -3 33 -14 3 -18 -1 -15
-15z" />
        <path d="M4292 5485 c-6 -14 -16 -25 -22 -25 -5 0 -10 -4 -10 -10 0 -5 7 -10
15 -10 12 0 15 -16 15 -83 0 -51 5 -88 12 -95 14 -14 78 -16 78 -2 0 6 -8 10
-18 10 -33 0 -42 22 -42 97 l0 73 30 0 c17 0 30 5 30 10 0 6 -13 10 -30 10
-25 0 -30 4 -30 25 0 14 -4 25 -8 25 -5 0 -14 -11 -20 -25z" />
        <path d="M4474 5460 c-36 -14 -54 -50 -54 -106 0 -70 30 -104 94 -104 49 0 76
7 76 21 0 5 -22 8 -49 7 -54 -2 -91 19 -91 54 0 16 9 18 76 18 l76 0 -7 33
c-11 48 -23 67 -51 77 -30 12 -42 12 -70 0z m70 -36 c31 -31 20 -44 -39 -44
-59 0 -63 4 -39 38 18 26 56 29 78 6z" />
        <path d="M4708 5455 c-16 -9 -28 -11 -28 -5 0 5 -7 10 -15 10 -13 0 -15 -21
-13 -152 2 -110 6 -152 16 -156 9 -3 12 13 12 57 0 56 10 76 25 51 3 -5 24
-10 46 -10 44 0 74 23 85 65 10 39 -2 106 -23 126 -26 26 -73 32 -105 14z m76
-30 c38 -38 27 -126 -18 -147 -51 -22 -96 40 -80 110 12 49 65 69 98 37z" />
        <path d="M5182 5462 c-38 -11 -20 -27 25 -24 33 3 44 0 52 -17 18 -33 13 -38
-37 -45 -66 -9 -92 -29 -92 -71 0 -24 6 -38 19 -45 30 -15 82 -12 103 7 17 15
18 15 18 0 0 -10 7 -17 15 -17 12 0 15 16 15 85 0 78 -2 88 -25 110 -24 25
-49 29 -93 17z m79 -145 c-18 -48 -82 -61 -98 -21 -10 27 11 49 53 54 49 7 57
0 45 -33z" />
        <path d="M5421 5454 c-17 -13 -26 -14 -29 -6 -2 7 -10 12 -18 12 -11 0 -14
-21 -14 -105 0 -98 1 -105 20 -105 18 0 20 7 20 78 0 87 14 112 61 112 41 0
49 -18 49 -107 0 -67 3 -83 15 -83 12 0 15 16 15 88 0 55 -5 95 -13 105 -18
26 -77 32 -106 11z" />
        <path d="M5748 5454 c-56 -30 -62 -143 -11 -184 34 -27 126 -25 131 2 3 14 -1
15 -31 7 -45 -12 -84 3 -97 36 -6 15 -10 28 -10 31 0 2 34 4 75 4 l75 0 0 31
c0 37 -48 89 -82 89 -13 -1 -35 -7 -50 -16z m86 -36 c24 -34 20 -38 -39 -38
-59 0 -70 13 -39 44 22 23 60 20 78 -6z" />
        <path d="M6334 5460 c-36 -14 -54 -50 -54 -106 0 -70 30 -104 94 -104 49 0 76
7 76 21 0 5 -22 8 -49 7 -54 -2 -91 19 -91 54 0 16 9 18 76 18 l76 0 -7 33
c-11 48 -23 67 -51 77 -30 12 -42 12 -70 0z m70 -36 c31 -31 20 -44 -39 -44
-59 0 -63 4 -39 38 18 26 56 29 78 6z" />
        <path d="M6632 5460 c-55 -23 -40 -78 30 -111 60 -27 72 -53 34 -71 -19 -8
-35 -8 -62 0 -31 9 -35 8 -32 -6 2 -13 16 -18 51 -20 58 -4 97 17 97 52 0 27
-21 47 -75 73 -27 12 -40 25 -40 38 0 18 6 20 53 19 36 -1 52 2 52 11 0 23
-65 32 -108 15z" />
        <path d="M5610 5355 c0 -87 3 -105 15 -105 12 0 15 18 15 105 0 87 -3 105 -15
105 -12 0 -15 -18 -15 -105z" />
        <path d="M6510 5355 c0 -87 3 -105 15 -105 12 0 15 18 15 105 0 87 -3 105 -15
105 -12 0 -15 -18 -15 -105z" />
    </g>
</svg>